<?xml version="1.0" standalone="no"?>
<!DOCTYPE svg PUBLIC "-//W3C//DTD SVG 20010904//EN"
 "http://www.w3.org/TR/2001/REC-SVG-20010904/DTD/svg10.dtd">
<svg version="1.0" xmlns="http://www.w3.org/2000/svg"
 width="260.000000pt" height="260.000000pt" viewBox="0 0 260.000000 260.000000"
 preserveAspectRatio="xMidYMid meet">
<metadata>
Created by potrace 1.11, written by Peter Selinger 2001-2013
</metadata>
<g transform="translate(0.000000,260.000000) scale(0.100000,-0.100000)"
fill="#000000" stroke="none">
<path d="M1105 2588 c-27 -6 -81 -18 -120 -27 l-70 -17 -5 -269 c-6 -313 -5
-312 -102 -396 -103 -90 -181 -210 -230 -355 -20 -60 -23 -89 -23 -219 0 -139
2 -156 28 -230 53 -150 129 -262 235 -348 87 -71 157 -109 262 -143 75 -24
100 -28 215 -27 102 0 146 4 203 21 363 105 587 444 543 821 -23 192 -93 325
-248 475 -57 55 -86 92 -93 116 -5 19 -10 148 -10 286 0 190 -3 254 -12 261
-18 13 -82 31 -153 43 -33 5 -73 13 -88 16 l-28 6 3 -403 3 -404 27 -42 c15
-23 52 -60 81 -82 137 -101 200 -216 200 -366 0 -121 -32 -201 -119 -294 -59
-64 -126 -103 -217 -126 -70 -18 -105 -18 -178 -1 -282 68 -418 356 -294 622
22 47 101 131 163 172 39 26 63 52 81 87 l26 50 0 390 c0 339 -2 390 -15 391
-8 1 -37 -3 -65 -8z"/>
<path d="M640 2423 c-288 -189 -476 -426 -565 -713 -14 -47 -30 -98 -35 -114
-5 -17 -15 -88 -22 -159 -12 -132 -1 -352 22 -422 5 -17 16 -55 25 -85 87
-302 317 -594 590 -748 122 -69 288 -128 430 -154 148 -27 412 -13 550 29 108
33 133 43 196 72 361 172 620 484 713 860 21 81 41 239 41 316 0 119 -30 299
-71 425 -44 136 -170 344 -275 457 -92 98 -292 253 -326 253 -10 0 -13 -42
-13 -183 l0 -184 75 -77 c130 -134 204 -259 257 -436 23 -79 35 -326 20 -410
-23 -124 -29 -143 -81 -255 -110 -236 -311 -419 -551 -503 -112 -39 -130 -43
-227 -51 -299 -26 -566 70 -774 278 -127 128 -221 295 -264 471 -26 103 -26
327 -1 425 51 200 121 328 257 470 l79 82 0 187 c0 199 0 201 -50 169z"/>
</g>
</svg>
