<?xml version="1.0" encoding="utf-8"?>
<!-- Generator: Adobe Illustrator 19.2.1, SVG Export Plug-In . SVG Version: 6.00 Build 0)  -->
<svg version="1.1" id="Calque_1" xmlns="http://www.w3.org/2000/svg" xmlns:xlink="http://www.w3.org/1999/xlink" x="0px" y="0px"
   width="26.8px" height="26.7px" viewBox="0 0 26.8 26.7" style="enable-background:new 0 0 26.8 26.7;" xml:space="preserve">
<style type="text/css">
  .st0{fill:#2EC4B6;}
  .st1{fill:#FFFFFF;}
</style>
<path class="st0" d="M21.4,23.8L20.7,24c-0.6,0.1-1.1,0.4-1.5,0.9l-0.5,0.6c-0.7,0.8-1.9,1.1-2.9,0.9l-0.8-0.2
  c-0.6-0.2-1.2-0.1-1.8,0.1l-0.7,0.3c-1,0.4-2.2,0.1-3-0.6l-0.6-0.5c-0.4-0.4-1-0.7-1.6-0.7l-0.8-0.1c-1.1-0.2-2-0.9-2.4-1.9
  l-0.3-0.7c-0.2-0.6-0.6-1.1-1.1-1.4L2.1,20c-0.9-0.6-1.4-1.7-1.2-2.8L1,16.4c0.1-0.6,0-1.2-0.3-1.7L0.4,14c-0.5-1-0.4-2.2,0.2-3.1
  l0.5-0.6c0.3-0.5,0.5-1.1,0.6-1.7l0-0.8c0-1.1,0.6-2.1,1.6-2.6l0.7-0.4c0.5-0.3,1-0.7,1.3-1.2L5.6,3c0.5-1,1.5-1.6,2.6-1.5l0.8,0
  c0.6,0,1.2-0.2,1.7-0.5l0.6-0.4c0.9-0.6,2.1-0.7,3.1-0.1l0.7,0.4c0.5,0.3,1.1,0.4,1.7,0.3L17.6,1c1.1-0.1,2.2,0.4,2.8,1.3l0.4,0.6
  c0.3,0.5,0.8,0.9,1.4,1.1l0.7,0.3c1,0.4,1.7,1.3,1.9,2.4l0.1,0.8c0.1,0.6,0.3,1.2,0.7,1.6L26,9.8c0.7,0.8,0.9,2,0.5,3l-0.3,0.7
  c-0.2,0.6-0.3,1.2-0.1,1.8l0.2,0.8c0.2,1.1-0.1,2.2-1,2.9l-0.6,0.5c-0.5,0.4-0.8,0.9-0.9,1.5l-0.2,0.8
  C23.3,22.8,22.5,23.6,21.4,23.8z"/>
<g>
  <path class="st1" d="M9.3,16.4H7.9l-2.2-3.8v3.8H4.2v-6.1h1.5l2.2,3.8v-3.8h1.5V16.4z"/>
  <path class="st1" d="M14.4,13.8h-2.3v1.5h2.7v1.1h-4.2v-6.1h4.2v1.1h-2.7v1.3h2.3V13.8z"/>
  <path class="st1" d="M20.4,14.1l0.7-3.8h1.5l-1.3,6.1h-1.5L19,12.9l-0.8,3.5h-1.5l-1.3-6.1h1.5l0.7,3.8l0.8-3.8h1.2L20.4,14.1z"/>
</g>
</svg>
