<?xml version="1.0" encoding="UTF-8"?>
<svg width="31px" height="31px" viewBox="0 0 31 31" version="1.1" xmlns="http://www.w3.org/2000/svg" xmlns:xlink="http://www.w3.org/1999/xlink">
    <!-- Generator: Sketch 51.2 (57519) - http://www.bohemiancoding.com/sketch -->
    <title>pricer</title>
    <desc>Created with Sketch.</desc>
    <defs>
        <polygon id="path-1" points="0.0003 0.6611 30.339 0.6611 30.339 31 0.0003 31"></polygon>
    </defs>
    <g id="Page-1" stroke="none" stroke-width="1" fill="none" fill-rule="evenodd">
        <g id="Homepage_design@2x" transform="translate(-15.000000, -312.000000)">
            <g id="pricer" transform="translate(15.000000, 312.000000)">
                <path d="M22.6084,5.8926 C22.1174,5.8926 21.6564,6.0836 21.3094,6.4306 C20.9624,6.7786 20.7714,7.2396 20.7714,7.7306 C20.7714,8.2206 20.9624,8.6826 21.3094,9.0306 C22.0254,9.7456 23.1914,9.7466 23.9074,9.0296 C24.2544,8.6826 24.4464,8.2206 24.4464,7.7306 C24.4464,7.2396 24.2544,6.7786 23.9084,6.4316 C23.5604,6.0836 23.0994,5.8926 22.6084,5.8926 M22.6084,10.7656 C21.8304,10.7656 21.0534,10.4706 20.4614,9.8786 C19.8864,9.3046 19.5704,8.5416 19.5704,7.7306 C19.5704,6.9186 19.8864,6.1566 20.4604,5.5816 C21.6084,4.4356 23.6094,4.4346 24.7564,5.5826 C25.3304,6.1556 25.6464,6.9186 25.6464,7.7306 C25.6464,8.5416 25.3304,9.3046 24.7564,9.8776 L24.7564,9.8786 C24.1644,10.4696 23.3864,10.7656 22.6084,10.7656" id="Fill-1" fill="#FF5555"></path>
                <g id="Group-5" stroke-width="1" transform="translate(0.000000, -0.661100)">
                    <mask id="mask-2" fill="white">
                        <use xlink:href="#path-1"></use>
                    </mask>
                    <g id="Clip-4"></g>
                    <path d="M1.6973,17.9531 L17.6973,1.9521 L27.3203,3.6801 L29.0473,13.3031 L13.0463,29.3031 L1.6973,17.9531 Z M28.3533,2.6461 L17.2923,0.6611 L0.0003,17.9531 L13.0463,31.0001 L30.3393,13.7071 L28.3533,2.6461 Z" id="Fill-3" fill="#464646" mask="url(#mask-2)"></path>
                </g>
                <path d="M15.4062,17.5674 C15.4062,17.2954 15.3312,17.0784 15.1792,16.9174 C15.0292,16.7564 14.7722,16.6074 14.4102,16.4714 C14.0482,16.3354 13.7362,16.1994 13.4732,16.0654 C13.2112,15.9304 12.9862,15.7764 12.7992,15.6024 C12.6112,15.4274 12.4652,15.2224 12.3602,14.9864 C12.2562,14.7514 12.2032,14.4704 12.2032,14.1454 C12.2032,13.5844 12.3832,13.1244 12.7412,12.7654 C13.1002,12.4064 13.5762,12.1974 14.1712,12.1374 L14.1712,11.0714 L14.9682,11.0714 L14.9682,12.1524 C15.5552,12.2354 16.0152,12.4804 16.3482,12.8874 C16.6802,13.2944 16.8462,13.8214 16.8462,14.4684 L15.4062,14.4684 C15.4062,14.0704 15.3242,13.7724 15.1592,13.5744 C14.9952,13.3774 14.7752,13.2784 14.5002,13.2784 C14.2272,13.2784 14.0162,13.3554 13.8672,13.5094 C13.7182,13.6644 13.6432,13.8784 13.6432,14.1504 C13.6432,14.4024 13.7162,14.6054 13.8622,14.7574 C14.0082,14.9104 14.2802,15.0664 14.6772,15.2264 C15.0732,15.3854 15.4002,15.5354 15.6552,15.6764 C15.9112,15.8174 16.1272,15.9774 16.3032,16.1554 C16.4792,16.3324 16.6142,16.5354 16.7062,16.7624 C16.7992,16.9904 16.8462,17.2554 16.8462,17.5574 C16.8462,18.1224 16.6702,18.5804 16.3182,18.9324 C15.9662,19.2844 15.4812,19.4914 14.8632,19.5544 L14.8632,20.5464 L14.0712,20.5464 L14.0712,19.5594 C13.3902,19.4864 12.8632,19.2454 12.4892,18.8354 C12.1162,18.4244 11.9292,17.8794 11.9292,17.1984 L13.3692,17.1984 C13.3692,17.5934 13.4632,17.8974 13.6502,18.1084 C13.8382,18.3184 14.1082,18.4234 14.4602,18.4234 C14.7522,18.4234 14.9832,18.3464 15.1522,18.1924 C15.3222,18.0384 15.4062,17.8294 15.4062,17.5674" id="Fill-6" fill="#464646"></path>
            </g>
        </g>
    </g>
</svg>