<?xml version="1.0" encoding="utf-8"?>
<!-- Generator: Adobe Illustrator 19.2.1, SVG Export Plug-In . SVG Version: 6.00 Build 0)  -->
<svg version="1.1" id="Calque_1" xmlns="http://www.w3.org/2000/svg" xmlns:xlink="http://www.w3.org/1999/xlink" x="0px" y="0px"
	 width="26.1px" height="18px" viewBox="0 0 26.1 18" style="enable-background:new 0 0 26.1 18;" xml:space="preserve">
<style type="text/css">
	.st0{fill:#363636;}
	.st1{fill:#F55455;}
</style>
<g>
	<path class="st0" d="M0,0v14.5h7.4V17h-1v1h1h5.5h1v-1h-1v-2.5h1.4v-1h0V9.8H1V1h18.3v5.2h1V0H0z M11.9,17H8.4v-2.5h3.5V17z"/>
	<rect x="15.8" y="1.8" transform="matrix(0.7071 -0.7071 0.7071 0.7071 2.1458 12.6403)" class="st0" width="1" height="3.9"/>
	<rect x="16.8" y="2" transform="matrix(0.7068 -0.7074 0.7074 0.7068 3.1193 13.0221)" class="st0" width="1" height="1.6"/>
</g>
<path class="st1" d="M26.1,17.3l-1.7-1.7c0.8-1,1.3-2.3,1.3-3.7c0-3.4-2.8-6.1-6.1-6.1s-6.1,2.8-6.1,6.1c0,3.4,2.8,6.1,6.1,6.1
	c1.6,0,3.1-0.6,4.2-1.7l1.7,1.7L26.1,17.3z M19.4,17c-2.8,0-5.1-2.3-5.1-5.1c0-2.8,2.3-5.1,5.1-5.1s5.1,2.3,5.1,5.1
	C24.6,14.7,22.3,17,19.4,17z"/>
</svg>
