<?xml version="1.0" encoding="UTF-8"?>
<svg width="25px" height="32px" viewBox="0 0 25 32" version="1.1" xmlns="http://www.w3.org/2000/svg" xmlns:xlink="http://www.w3.org/1999/xlink">
    <!-- Generator: Sketch 51.2 (57519) - http://www.bohemiancoding.com/sketch -->
    <title>Group</title>
    <desc>Created with Sketch.</desc>
    <defs>
        <polygon id="path-1" points="0 0.186 24.45 0.186 24.45 31.9998 0 31.9998"></polygon>
        <polygon id="path-3" points="0 32.8145 24.45 32.8145 24.45 1.0005 0 1.0005"></polygon>
    </defs>
    <g id="Page-1" stroke="none" stroke-width="1" fill="none" fill-rule="evenodd">
        <g id="HEDGE_@2x" transform="translate(-18.000000, -229.000000)">
            <g id="Group" transform="translate(18.000000, 228.000000)">
                <path d="M12.2251,9.7286 C11.6711,9.7286 11.2211,10.1796 11.2211,10.7336 C11.2211,11.2876 11.6711,11.7376 12.2251,11.7376 C12.7791,11.7376 13.2291,11.2876 13.2291,10.7336 C13.2291,10.1796 12.7791,9.7286 12.2251,9.7286 M12.2251,12.9366 C11.0101,12.9366 10.0201,11.9486 10.0201,10.7336 C10.0201,9.5176 11.0101,8.5296 12.2251,8.5296 C13.4401,8.5296 14.4291,9.5176 14.4291,10.7336 C14.4291,11.9486 13.4401,12.9366 12.2251,12.9366" id="Fill-1" fill="#FF5555"></path>
                <g id="Group-5" transform="translate(0.000000, 0.814500)">
                    <mask id="mask-2" fill="white">
                        <use xlink:href="#path-1"></use>
                    </mask>
                    <g id="Clip-4"></g>
                    <path d="M23.25,30.8008 L1.2,30.8008 L1.2,5.4578 L3,5.4578 L3,28.9998 L21.45,28.9998 L21.45,5.4578 L23.25,5.4578 L23.25,30.8008 Z M8.083,5.4578 L16.367,5.4578 L20.25,5.4578 L20.25,27.8008 L4.2,27.8008 L4.2,5.4578 L8.083,5.4578 Z M9.283,3.5408 L10.669,3.5408 L10.669,2.9418 C10.669,2.0828 11.367,1.3848 12.225,1.3848 C13.083,1.3848 13.781,2.0828 13.781,2.9418 L13.781,3.5408 L15.167,3.5408 L15.167,4.2588 L9.283,4.2588 L9.283,3.5408 Z M21.45,4.2588 L16.367,4.2588 L16.367,2.3418 L14.916,2.3418 C14.641,1.1098 13.539,0.1858 12.225,0.1858 C10.911,0.1858 9.809,1.1098 9.535,2.3418 L8.083,2.3418 L8.083,4.2588 L3,4.2588 L0,4.2588 L0,31.9998 L24.45,31.9998 L24.45,4.2588 L21.45,4.2588 Z" id="Fill-3" fill="#FFFFFF" mask="url(#mask-2)"></path>
                </g>
                <mask id="mask-4" fill="white">
                    <use xlink:href="#path-3"></use>
                </mask>
                <g id="Clip-7"></g>
                <polygon id="Fill-6" fill="#FFFFFF" mask="url(#mask-4)" points="7.6 16.2305 16.85 16.2305 16.85 15.0315 7.6 15.0315"></polygon>
                <polygon id="Fill-8" fill="#FFFFFF" mask="url(#mask-4)" points="7.6 18.8555 16.85 18.8555 16.85 17.6565 7.6 17.6565"></polygon>
                <polygon id="Fill-9" fill="#FFFFFF" mask="url(#mask-4)" points="7.6 21.4805 16.85 21.4805 16.85 20.2815 7.6 20.2815"></polygon>
                <polygon id="Fill-10" fill="#FFFFFF" mask="url(#mask-4)" points="7.671 25.9125 11.195 25.9125 11.195 24.7135 7.671 24.7135"></polygon>
                <polygon id="Fill-11" fill="#FFFFFF" mask="url(#mask-4)" points="14.8931 24.8458 14.3251 24.2778 13.4761 25.1248 14.8931 26.5428 17.2031 24.2328 16.3541 23.3848"></polygon>
            </g>
        </g>
    </g>
</svg>