<?xml version="1.0" encoding="UTF-8"?>
<svg width="31px" height="31px" viewBox="0 0 31 31" version="1.1" xmlns="http://www.w3.org/2000/svg" xmlns:xlink="http://www.w3.org/1999/xlink">
    <!-- Generator: Sketch 51.2 (57519) - http://www.bohemiancoding.com/sketch -->
    <title>dollar blanc</title>
    <desc>Created with Sketch.</desc>
    <defs>
        <polygon id="path-1" points="0.0003 0.6611 30.339 0.6611 30.339 31 0.0003 31"></polygon>
    </defs>
    <g id="Page-1" stroke="none" stroke-width="1" fill="none" fill-rule="evenodd">
        <g id="Pricer_design@2x" transform="translate(-15.000000, -312.000000)">
            <g id="dollar-blanc" transform="translate(15.000000, 312.000000)">
                <path d="M22.6084,5.8926 C22.1174,5.8926 21.6564,6.0836 21.3094,6.4306 C20.9624,6.7786 20.7714,7.2396 20.7714,7.7306 C20.7714,8.2206 20.9624,8.6826 21.3094,9.0306 C22.0254,9.7456 23.1914,9.7466 23.9074,9.0296 C24.2544,8.6826 24.4464,8.2206 24.4464,7.7306 C24.4464,7.2396 24.2544,6.7786 23.9084,6.4316 C23.5604,6.0836 23.0994,5.8926 22.6084,5.8926 M22.6084,10.7656 C21.8304,10.7656 21.0534,10.4706 20.4614,9.8786 C19.8864,9.3046 19.5704,8.5416 19.5704,7.7306 C19.5704,6.9186 19.8864,6.1566 20.4604,5.5816 C21.6084,4.4356 23.6094,4.4346 24.7564,5.5826 C25.3304,6.1556 25.6464,6.9186 25.6464,7.7306 C25.6464,8.5416 25.3304,9.3046 24.7564,9.8776 L24.7564,9.8786 C24.1644,10.4696 23.3864,10.7656 22.6084,10.7656" id="Fill-1" fill="#FF5555"></path>
                <g id="Group-5" stroke-width="1" transform="translate(0.000000, -0.661100)">
                    <mask id="mask-2" fill="white">
                        <use xlink:href="#path-1"></use>
                    </mask>
                    <g id="Clip-4"></g>
                    <path d="M1.6973,17.9531 L17.6973,1.9521 L27.3203,3.6801 L29.0473,13.3031 L13.0463,29.3031 L1.6973,17.9531 Z M28.3533,2.6461 L17.2923,0.6611 L0.0003,17.9531 L13.0463,31.0001 L30.3393,13.7071 L28.3533,2.6461 Z" id="Fill-3" fill="#FFFFFF" mask="url(#mask-2)"></path>
                </g>
                <path d="M15.2037,17.3379 C15.2037,17.0659 15.1287,16.8489 14.9767,16.6879 C14.8267,16.5269 14.5697,16.3779 14.2077,16.2419 C13.8457,16.1059 13.5337,15.9699 13.2707,15.8359 C13.0087,15.7009 12.7837,15.5469 12.5967,15.3729 C12.4087,15.1979 12.2627,14.9929 12.1577,14.7569 C12.0537,14.5219 12.0007,14.2409 12.0007,13.9159 C12.0007,13.3549 12.1807,12.8949 12.5387,12.5359 C12.8977,12.1769 13.3737,11.9679 13.9687,11.9079 L13.9687,10.8419 L14.7657,10.8419 L14.7657,11.9229 C15.3527,12.0059 15.8127,12.2509 16.1457,12.6579 C16.4777,13.0649 16.6437,13.5919 16.6437,14.2389 L15.2037,14.2389 C15.2037,13.8409 15.1217,13.5429 14.9567,13.3449 C14.7927,13.1479 14.5727,13.0489 14.2977,13.0489 C14.0247,13.0489 13.8137,13.1259 13.6647,13.2799 C13.5157,13.4349 13.4407,13.6489 13.4407,13.9209 C13.4407,14.1729 13.5137,14.3759 13.6597,14.5279 C13.8057,14.6809 14.0777,14.8369 14.4747,14.9969 C14.8707,15.1559 15.1977,15.3059 15.4527,15.4469 C15.7087,15.5879 15.9247,15.7479 16.1007,15.9259 C16.2767,16.1029 16.4117,16.3059 16.5037,16.5329 C16.5967,16.7609 16.6437,17.0259 16.6437,17.3279 C16.6437,17.8929 16.4677,18.3509 16.1157,18.7029 C15.7637,19.0549 15.2787,19.2619 14.6607,19.3249 L14.6607,20.3169 L13.8687,20.3169 L13.8687,19.3299 C13.1877,19.2569 12.6607,19.0159 12.2867,18.6059 C11.9137,18.1949 11.7267,17.6499 11.7267,16.9689 L13.1667,16.9689 C13.1667,17.3639 13.2607,17.6679 13.4477,17.8789 C13.6357,18.0889 13.9057,18.1939 14.2577,18.1939 C14.5497,18.1939 14.7807,18.1169 14.9497,17.9629 C15.1197,17.8089 15.2037,17.5999 15.2037,17.3379" id="Fill-6" fill="#FFFFFF"></path>
            </g>
        </g>
    </g>
</svg>