<?xml version="1.0" encoding="utf-8"?>
<!-- Generator: Adobe Illustrator 19.2.1, SVG Export Plug-In . SVG Version: 6.00 Build 0)  -->
<svg version="1.1" id="Calque_1" xmlns="http://www.w3.org/2000/svg" xmlns:xlink="http://www.w3.org/1999/xlink" x="0px" y="0px"
	 width="22.8px" height="19.2px" viewBox="0 0 22.8 19.2" style="enable-background:new 0 0 22.8 19.2;" xml:space="preserve">
<style type="text/css">
	.st0{fill:#363636;}
	.st1{fill:#F55455;}
</style>
<path class="st0" d="M22.3,0L22.3,0l-6.4,0v1.5c0.5,0.2,0.8,0.7,0.8,1.2c0,0.7-0.6,1.3-1.3,1.3c-0.7,0-1.3-0.6-1.3-1.3
	c0-0.5,0.3-1,0.8-1.2V0h-7v1.5c0.5,0.2,0.8,0.7,0.8,1.2C8.7,3.4,8.1,4,7.4,4C6.6,4,6.1,3.4,6.1,2.7c0-0.5,0.3-1,0.8-1.2V0H0.5v0H0
	v19.2h22.8V0H22.3z M1,18.2V5.9h20.8v12.2H1z"/>
<g>
	<rect x="5.6" y="9.6" class="st1" width="11.7" height="1"/>
</g>
<g>
	<rect x="8.6" y="13.4" class="st1" width="5.7" height="1"/>
</g>
</svg>
