<?xml version="1.0" encoding="UTF-8"?>
<svg width="29px" height="28px" viewBox="0 0 29 28" version="1.1" xmlns="http://www.w3.org/2000/svg" xmlns:xlink="http://www.w3.org/1999/xlink">
    <!-- Generator: Sketch 51.2 (57519) - http://www.bohemiancoding.com/sketch -->
    <title>Hedging</title>
    <desc>Created with Sketch.</desc>
    <defs>
        <polygon id="path-1" points="0.0002 0.709 28.6009947 0.709 28.6009947 28 0.0002 28"></polygon>
    </defs>
    <g id="Page-1" stroke="none" stroke-width="1" fill="none" fill-rule="evenodd">
        <g id="Homepage_design@2x" transform="translate(-16.000000, -475.000000)">
            <g id="Hedging" transform="translate(16.000000, 475.000000)">
                <polygon id="Fill-1" fill="#FF5555" points="22.2329 24.0434 18.2509 20.0614 19.0989 19.2124 23.0819 23.1944"></polygon>
                <polygon id="Fill-2" fill="#FF5555" points="23.5908 22.685 19.6088 18.703 20.4578 17.854 24.4398 21.836"></polygon>
                <polygon id="Fill-3" fill="#FF5555" points="18.2524 12.147 15.1444 9.039 15.9924 8.19 19.1014 11.298"></polygon>
                <g id="Group-6" stroke-width="1" transform="translate(0.000000, -0.709000)">
                    <mask id="mask-2" fill="white">
                        <use xlink:href="#path-1"></use>
                    </mask>
                    <g id="Clip-5"></g>
                    <path d="M21.7432,10.0381 C21.5652,10.1751 21.1712,9.8631 21.1092,9.8051 L18.4882,7.1841 L18.5532,7.0251 C19.2182,5.3871 18.4742,3.5401 16.8602,2.8211 L15.1392,2.0541 C16.5642,1.7601 18.8062,1.7151 20.6572,3.5661 L23.9612,6.8691 C23.9722,6.8811 24.2402,7.1831 24.0972,7.4531 C23.6702,8.2601 23.9382,8.8431 24.2032,9.1021 C24.8892,9.9241 25.8182,9.9181 26.4512,9.7321 L27.3972,10.6771 C27.3602,10.9011 27.0752,11.4771 26.4422,12.1091 C25.8102,12.7411 25.2342,13.0271 25.0112,13.0641 L24.0652,12.1181 C24.2552,11.4751 24.2582,10.5261 23.3982,9.8391 C23.2322,9.7061 22.6442,9.3511 21.7432,10.0381 Z M17.4392,12.8291 L16.5592,11.9491 L15.9762,12.5311 L14.9022,11.4571 L14.1262,12.2321 L13.7662,11.8721 L17.7572,8.1491 L19.8512,10.2441 L17.4392,12.8291 Z M20.4392,17.5271 L26.0102,23.1861 L22.7842,26.3221 L17.1952,20.7211 C17.2332,20.1111 17.1432,18.9341 16.1142,17.9041 C15.1832,16.9741 13.9682,16.8421 13.3642,16.8411 L14.9462,15.2591 L16.5292,13.6771 C16.5302,14.2801 16.6612,15.4961 17.5922,16.4271 C18.6212,17.4551 19.7942,17.5491 20.4392,17.5271 Z M4.9282,26.2711 L1.7282,23.0721 L11.4832,14.0031 L11.9202,14.4391 L11.1442,15.2151 L12.2192,16.2891 L11.6362,16.8721 L12.6892,17.9221 L4.9282,26.2711 Z M5.0682,6.9941 L3.3152,4.2981 L3.9852,3.6281 L6.6812,5.3811 L6.8582,6.6611 L13.1622,12.9661 L12.6532,13.4761 L6.3482,7.1711 L5.0682,6.9941 Z M14.0972,14.4101 L13.0672,15.4401 L12.8422,15.2151 L14.9022,13.1541 L15.1282,13.3801 L14.0972,14.4101 Z M22.6202,12.3701 L24.2382,13.9881 C24.3632,14.1131 24.5912,14.2671 24.9582,14.2671 C25.1852,14.2671 25.4652,14.2081 25.8052,14.0491 C26.2842,13.8251 26.8112,13.4371 27.2912,12.9571 C28.3072,11.9421 29.0202,10.6041 28.3222,9.9051 L26.7032,8.2871 L26.3092,8.5021 C26.2802,8.5191 25.5732,8.8941 25.1092,8.3151 L25.0142,8.2211 C24.9492,8.1681 25.1182,8.0881 25.1582,8.0151 C25.5952,7.1881 25.1602,6.3891 24.8252,6.0361 L21.5062,2.7181 C17.9552,-0.8319 13.2422,1.3981 13.1952,1.4211 L12.0362,1.9841 L16.3712,3.9161 C17.3912,4.3711 17.8622,5.5381 17.4412,6.5731 L17.2912,6.9421 L12.9182,11.0241 L7.9922,6.0981 L7.7952,4.6741 L3.8242,2.0921 L1.7792,4.1371 L4.3612,8.1081 L5.7852,8.3051 L10.6342,13.1531 L0.0002,23.0411 L4.9592,28.0001 L14.1262,18.1381 C14.5012,18.2311 14.9192,18.4061 15.2652,18.7531 C15.9622,19.4491 16.0232,20.2381 15.9982,20.6451 C15.9752,20.9971 16.1092,21.3451 16.3652,21.6011 L21.9352,27.1711 C22.1742,27.4101 22.4912,27.5411 22.8282,27.5411 C23.1662,27.5411 23.4832,27.4101 23.7222,27.1711 L26.8582,24.0351 C27.3512,23.5421 27.3512,22.7411 26.8582,22.2481 L21.2892,16.6791 C21.0332,16.4221 20.6832,16.2831 20.3332,16.3101 C19.9242,16.3331 19.1362,16.2741 18.4402,15.5781 C18.0262,15.1641 17.8502,14.6451 17.7782,14.2241 L20.7672,11.0201 C21.2452,11.2821 21.8932,11.4341 22.4712,10.9921 C22.5922,10.8991 22.6762,10.8591 22.7242,10.8421 C23.1662,11.2751 22.8952,11.8621 22.8362,11.9761 L22.6202,12.3701 Z" id="Fill-4" fill="#464646" mask="url(#mask-2)"></path>
                </g>
            </g>
        </g>
    </g>
</svg>