<?xml version="1.0" encoding="utf-8"?>
<!-- Generator: Adobe Illustrator 19.2.1, SVG Export Plug-In . SVG Version: 6.00 Build 0)  -->
<svg version="1.1" id="Calque_1" xmlns="http://www.w3.org/2000/svg" xmlns:xlink="http://www.w3.org/1999/xlink" x="0px" y="0px"
	 width="31.1px" height="28.4px" viewBox="0 0 31.1 28.4" style="enable-background:new 0 0 31.1 28.4;" xml:space="preserve">
<style type="text/css">
	.st0{fill:#FF5555;}
	.st1{fill:#FFFFFF;}
</style>
<g>
	<path class="st0" d="M6.1,16.1v7.9h9.2v-7.9H6.1z M14.1,22.7H7.3v-5.5h6.8V22.7z"/>
	<rect x="9.4" y="18.4" transform="matrix(0.7075 -0.7067 0.7067 0.7075 -10.3969 12.9783)" class="st0" width="2.2" height="1.2"/>
	<rect x="9.8" y="20.2" transform="matrix(0.7075 -0.7067 0.7067 0.7075 -11.4736 13.8095)" class="st0" width="2.2" height="1.2"/>
</g>
<g>
	<path class="st1" d="M31.1,13.9L25,8.2V3.6c0-0.8-0.6-1.4-1.4-1.4h-5l-1.9-1.8c-0.6-0.6-1.5-0.6-2.1,0L0,13.9l0.8,0.9l1.3-1.2v14.8
		h15.6H25h4V13.6l1.3,1.2L31.1,13.9z M23.5,3.4c0.1,0,0.2,0.1,0.2,0.2v3.5l-4-3.7H23.5z M18.9,27.2v-9.9h4.9v9.9H18.9z M27.8,27.2
		H25V16.1h-7.3v11.1H3.3V12.4l12-11.2c0.1-0.1,0.3-0.1,0.5,0l12,11.2V27.2z"/>
	<path class="st1" d="M12.2,8.9c0,1.9,1.5,3.4,3.4,3.4s3.4-1.5,3.4-3.4s-1.5-3.4-3.4-3.4S12.2,7,12.2,8.9z M17.7,8.9
		c0,1.2-1,2.2-2.2,2.2s-2.2-1-2.2-2.2s1-2.2,2.2-2.2S17.7,7.7,17.7,8.9z"/>
</g>
</svg>
