<?xml version="1.0" encoding="UTF-8"?>
<svg width="37px" height="30px" viewBox="0 0 37 30" version="1.1" xmlns="http://www.w3.org/2000/svg" xmlns:xlink="http://www.w3.org/1999/xlink">
    <!-- Generator: Sketch 51.2 (57519) - http://www.bohemiancoding.com/sketch -->
    <title>Analisys blanc</title>
    <desc>Created with Sketch.</desc>
    <defs>
        <polygon id="path-1" points="0.0004 0.2941 36.3864 0.2941 36.3864 30 0.0004 30"></polygon>
    </defs>
    <g id="Page-1" stroke="none" stroke-width="1" fill="none" fill-rule="evenodd">
        <g id="Analysis_design@2x" transform="translate(-12.000000, -395.000000)">
            <g id="Analisys-blanc" transform="translate(12.000000, 395.000000)">
                <g id="Group-3" stroke-width="1" transform="translate(0.000000, -0.293900)">
                    <mask id="mask-2" fill="white">
                        <use xlink:href="#path-1"></use>
                    </mask>
                    <g id="Clip-2"></g>
                    <path d="M33.7944,9.0391 C33.0264,9.0391 32.4024,8.4141 32.4024,7.6461 C32.4024,6.8791 33.0264,6.2551 33.7944,6.2551 C34.5624,6.2551 35.1864,6.8791 35.1864,7.6461 C35.1864,8.4141 34.5624,9.0391 33.7944,9.0391 Z M29.8104,17.3961 C29.0434,17.3961 28.4184,16.7711 28.4184,16.0041 C28.4184,15.2361 29.0434,14.6121 29.8104,14.6121 C30.5784,14.6121 31.2024,15.2361 31.2024,16.0041 C31.2024,16.7711 30.5784,17.3961 29.8104,17.3961 Z M14.2164,20.5761 C11.8274,20.5761 9.6464,19.6871 7.9704,18.2301 L10.4434,15.6671 L9.5804,14.8331 L7.1174,17.3861 C5.6054,15.6971 4.6764,13.4751 4.6764,11.0341 C4.6764,5.7731 8.9564,1.4931 14.2164,1.4931 C19.4784,1.4931 23.7574,5.7731 23.7574,11.0341 C23.7574,12.2121 23.5334,13.3361 23.1414,14.3791 L17.5954,13.1811 L17.3414,14.3541 L22.6424,15.5001 C21.0384,18.5161 17.8654,20.5761 14.2164,20.5761 Z M23.4504,19.8451 L22.1654,21.1311 L20.6494,19.6161 C21.1364,19.2501 21.5914,18.8461 22.0104,18.4041 L23.4504,19.8451 Z M30.1694,26.8491 C30.1694,27.3701 29.9664,27.8611 29.5984,28.2291 C28.8364,28.9901 27.5964,28.9901 26.8734,28.2701 L22.2624,22.7301 L25.0214,19.9721 L29.5984,25.4691 C29.9664,25.8371 30.1694,26.3271 30.1694,26.8491 Z M2.5924,24.5601 C1.8244,24.5601 1.2004,23.9351 1.2004,23.1681 C1.2004,22.4001 1.8244,21.7751 2.5924,21.7751 C3.3594,21.7751 3.9834,22.4001 3.9834,23.1681 C3.9834,23.9351 3.3594,24.5601 2.5924,24.5601 Z M33.7944,5.0561 C32.3654,5.0561 31.2024,6.2181 31.2024,7.6461 C31.2024,8.4451 31.5734,9.1521 32.1424,9.6271 L30.2894,13.4611 C30.1344,13.4321 29.9744,13.4131 29.8104,13.4131 C28.6324,13.4131 27.6464,14.2071 27.3324,15.2851 L24.3244,14.6341 C24.7274,13.5071 24.9584,12.2981 24.9584,11.0341 C24.9584,5.1111 20.1394,0.2941 14.2164,0.2941 C8.2944,0.2941 3.4764,5.1111 3.4764,11.0341 C3.4764,13.8131 4.5464,16.3411 6.2844,18.2501 L3.7594,20.8671 C3.4074,20.6871 3.0144,20.5761 2.5924,20.5761 C1.1634,20.5761 0.0004,21.7381 0.0004,23.1681 C0.0004,24.5981 1.1634,25.7601 2.5924,25.7601 C4.0214,25.7601 5.1844,24.5981 5.1844,23.1681 C5.1844,22.5961 4.9924,22.0721 4.6784,21.6431 L7.1394,19.0931 C9.0314,20.7571 11.5044,21.7751 14.2164,21.7751 C16.1924,21.7751 18.0394,21.2301 19.6324,20.2951 L21.3164,21.9791 L20.6394,22.6561 L25.9874,29.0791 C26.6024,29.6921 27.4094,30.0001 28.2164,30.0001 C29.0234,30.0001 29.8314,29.6921 30.4454,29.0791 L30.4464,29.0781 C31.0424,28.4831 31.3694,27.6911 31.3694,26.8491 C31.3694,26.0061 31.0414,25.2151 30.4834,24.6601 L25.1024,18.1931 L24.2984,18.9971 L22.7854,17.4841 C23.1914,16.9461 23.5474,16.3701 23.8474,15.7601 L27.2684,16.4991 C27.5004,17.6921 28.5514,18.5961 29.8104,18.5961 C31.2394,18.5961 32.4024,17.4341 32.4024,16.0041 C32.4024,15.1681 31.9984,14.4321 31.3824,13.9581 L33.2144,10.1671 C33.4014,10.2101 33.5944,10.2381 33.7944,10.2381 C35.2234,10.2381 36.3864,9.0761 36.3864,7.6461 C36.3864,6.2181 35.2234,5.0561 33.7944,5.0561 Z" id="Fill-1" fill="#FFFFFF" mask="url(#mask-2)"></path>
                </g>
                <path d="M13.562,9.4454 C11.706,9.4454 10.196,10.9564 10.196,12.8124 C10.196,14.6684 11.706,16.1784 13.562,16.1784 C15.418,16.1784 16.928,14.6684 16.928,12.8124 C16.928,10.9564 15.418,9.4454 13.562,9.4454 M13.562,17.3784 C11.044,17.3784 8.996,15.3304 8.996,12.8124 C8.996,10.2944 11.044,8.2464 13.562,8.2464 C16.08,8.2464 18.128,10.2944 18.128,12.8124 C18.128,15.3304 16.08,17.3784 13.562,17.3784" id="Fill-4" fill="#FF5555"></path>
            </g>
        </g>
    </g>
</svg>