<?xml version="1.0" encoding="utf-8"?>
<!-- Generator: Adobe Illustrator 23.0.1, SVG Export Plug-In . SVG Version: 6.00 Build 0)  -->
<svg version="1.1" id="Calque_1" xmlns="http://www.w3.org/2000/svg" xmlns:xlink="http://www.w3.org/1999/xlink" x="0px" y="0px"
	 viewBox="0 0 14.2 22" style="enable-background:new 0 0 14.2 22;" xml:space="preserve">
<style type="text/css">
	.st0{fill:#FF5555;}
	.st1{fill:#363636;}
</style>
<g>
	<polygon class="st0" points="12.1,21.5 12.1,20.2 7.1,16.2 2,20.2 2,21.5 	"/>
	<polygon class="st0" points="2,3.1 12.1,3.1 12.1,6.4 7.1,11 2,6.4 	"/>
	<path class="st1" d="M12.6,1h1.5V0H0v1h1.5v5.7L6.3,11l-4.8,4.3V21H0v1h14.2v-1h-1.5v-5.7L7.8,11l4.8-4.3V1z M11.6,15.8V21H2.5
		v-5.2l4.5-4.1L11.6,15.8z M7.1,10.3L2.5,6.2V1h9.1v5.2L7.1,10.3z"/>
</g>
</svg>