<?xml version="1.0" encoding="utf-8"?>
<!-- Generator: Adobe Illustrator 23.0.1, SVG Export Plug-In . SVG Version: 6.00 Build 0)  -->
<svg version="1.1" id="Calque_1" xmlns="http://www.w3.org/2000/svg" xmlns:xlink="http://www.w3.org/1999/xlink" x="0px" y="0px"
	 viewBox="0 0 25.5 24.3" style="enable-background:new 0 0 25.5 24.3;" xml:space="preserve">
<style type="text/css">
	.st0{fill:#FF5555;}
	.st1{fill:#363636;}
</style>
<polygon class="st0" points="3.8,2.4 14.7,13.3 11,13.3 0.5,2.8 0.5,2.4 "/>
<polygon class="st0" points="0.5,10.1 3.7,13.3 0.5,13.3 "/>
<polygon class="st0" points="11.1,2.4 22,13.3 25,13.3 25,12.7 14.7,2.4 "/>
<polygon class="st0" points="22,2.4 25,5.4 25,2.4 "/>
<path class="st1" d="M25.5,13.8V1.9h-3.2V0h-1v1.9h-17V0h-1v1.9H0v11.9h3.2v2H0.5v1h2.7v7.4h1v-7.4h17v7.4h1v-7.4H25v-1h-2.7v-2
	H25.5z M18.6,12.8L8.6,2.9h9.5l6.3,6.3v3.6H18.6z M24.5,7.8l-4.9-4.9h4.9V7.8z M7.2,2.9l9.9,9.9H7.6L1,6.3V2.9H7.2z M1,7.7l5.2,5.2
	H1V7.7z M21.2,15.8h-17v-2h17V15.8z"/>
</svg>
